HIERARCHY
ROOT RootJoint
{
    OFFSET   0.000000   0.000000   0.000000
    CHANNELS 6 Xposition Yposition Zposition Xrotation Yrotation Zrotation
    JOINT pelvis_lowerback
    {
        OFFSET   0.000000   0.093605   0.000000
        CHANNELS 3 Xrotation Yrotation Zrotation
        JOINT lowerback_torso
        {
            OFFSET   0.000000   0.100000   0.000000
            CHANNELS 3 Xrotation Yrotation Zrotation
            JOINT torso_head
            {
                OFFSET   0.000000   0.282350   0.000000
                CHANNELS 3 Xrotation Yrotation Zrotation
                End Site
                {
                    OFFSET   0.000000   0.192650   0.000000
                }
            }
            JOINT rTorso_Clavicle
            {
                OFFSET  -0.001000   0.157500   0.000000
                CHANNELS 3 Xrotation Yrotation Zrotation
                JOINT rShoulder
                {
                    OFFSET  -0.117647   0.000000   0.000000
                    CHANNELS 3 Xrotation Yrotation Zrotation
                    JOINT rElbow
                    {
                        OFFSET  -0.245000   0.000000   0.000000
                        CHANNELS 3 Xrotation Yrotation Zrotation
                        JOINT rWrist
                        {
                            OFFSET  -0.240000   0.000000   0.000000
                            CHANNELS 3 Xrotation Yrotation Zrotation
                            End Site
                            {
                                OFFSET  -0.116353  -0.002500   0.000000
                            }
                        }
                    }
                }
            }
            JOINT lTorso_Clavicle
            {
                OFFSET   0.001000   0.157500   0.000000
                CHANNELS 3 Xrotation Yrotation Zrotation
                JOINT lShoulder
                {
                    OFFSET   0.117647   0.000000   0.000000
                    CHANNELS 3 Xrotation Yrotation Zrotation
                    JOINT lElbow
                    {
                        OFFSET   0.245000   0.000000   0.000000
                        CHANNELS 3 Xrotation Yrotation Zrotation
                        JOINT lWrist
                        {
                            OFFSET   0.240000   0.000000   0.000000
                            CHANNELS 3 Xrotation Yrotation Zrotation
                            End Site
                            {
                                OFFSET   0.116353  -0.002500   0.000000
                            }
                        }
                    }
                }
            }
        }
    }
    JOINT rHip
    {
        OFFSET  -0.100000  -0.051395   0.000000
        CHANNELS 3 Xrotation Yrotation Zrotation
        JOINT rKnee
        {
            OFFSET   0.000000  -0.410000   0.000000
            CHANNELS 3 Xrotation Yrotation Zrotation
            JOINT rAnkle
            {
                OFFSET   0.000000  -0.390000   0.000000
                CHANNELS 3 Xrotation Yrotation Zrotation
                JOINT rToeJoint
                {
                    OFFSET   0.000000  -0.050000   0.130000
                    CHANNELS 3 Xrotation Yrotation Zrotation
                    End Site
                    {
                        OFFSET  -0.010000   0.002000   0.060000
                    }
                }
            }
        }
    }
    JOINT lHip
    {
        OFFSET   0.100000  -0.051395   0.000000
        CHANNELS 3 Xrotation Yrotation Zrotation
        JOINT lKnee
        {
            OFFSET   0.000000  -0.410000   0.000000
            CHANNELS 3 Xrotation Yrotation Zrotation
            JOINT lAnkle
            {
                OFFSET   0.000000  -0.390000   0.000000
                CHANNELS 3 Xrotation Yrotation Zrotation
                JOINT lToeJoint
                {
                    OFFSET   0.000000  -0.050000   0.130000
                    CHANNELS 3 Xrotation Yrotation Zrotation
                    End Site
                    {
                        OFFSET   0.010000   0.002000   0.060000
                    }
                }
            }
        }
    }
}
MOTION
Frames: 17
Frame Time:   0.008333
 -2.376719   0.925631   3.975860   0.000000   0.000000   0.000000   0.000000   0.000000   0.000000   0.000000   0.000000   0.000000   0.000000   0.000000   0.000000   0.000000   0.000000   0.000000   0.000000   0.000000   0.000000   0.000000   0.000000   0.000000   0.000000   0.000000   0.000000   0.000000   0.000000   0.000000   0.000000   0.000000   0.000000   0.000000   0.000000   0.000000   0.000000   0.000000   0.000000   0.000000   0.000000   0.000000   0.000000   0.000000   0.000000   0.000000   0.000000   0.000000   0.000000   0.000000   0.000000   0.000000   0.000000   0.000000   0.000000   0.000000   0.000000   0.000000   0.000000   0.000000   0.000000   0.000000   0.000000
 -2.376677   0.925235   3.973787  -0.130368  -0.019157   0.116423   0.675291   0.020888  -0.180857   0.087382  -0.109425   0.020214  -0.205725  -0.025305  -0.008609   0.283172  -0.500016  -0.652875   1.559542  -0.406825   2.042593   0.045562   3.672874  -0.080263  -0.248757  -0.914125  -0.843601   0.250285   0.702040   0.443823   2.237985   0.517255  -1.619497   0.042370  -3.694771   0.101554  -0.266826   0.733076   0.787452  -1.064121  -0.048405  -0.309385   3.101180   0.005158  -0.002081  -2.024248  -0.319534  -0.051107  -0.185996  -0.000398   0.000629  -1.159789  -0.000517   0.048400   3.322721  -0.004789  -0.000446  -2.146542   0.256586   0.141146   0.048862  -0.000130   0.000100
 -2.376654   0.924543   3.971454  -0.438362  -0.084211   0.241661   1.487055   0.054859  -0.372086   0.410475  -0.196158   0.027865  -0.318927  -0.053903  -0.024077   0.564578  -0.964089  -0.952966   3.035842  -0.671002   4.228977   0.109515   7.449642  -0.150670  -0.414285  -0.891119  -1.251553   0.506751   1.391347   0.568897   4.354412   0.908423  -3.389865   0.106038  -7.482288   0.188688  -0.429203   0.566026   1.247649  -2.017424  -0.096620  -0.778403   6.348106   0.013416  -0.006343  -3.898969  -0.623819  -0.110911  -0.370265  -0.000973   0.001196  -2.221268   0.005660   0.242694   6.797291  -0.013604  -0.000989  -4.135014   0.498089   0.284333   0.077585  -0.000220   0.000126
 -2.376640   0.923382   3.969031  -0.770537  -0.172881   0.361073   2.314072   0.095187  -0.557075   0.803643  -0.263551   0.031181  -0.393995  -0.081233  -0.041882   0.828279  -1.358347  -1.009461   4.417967  -0.829826   6.441444   0.179452  11.245262  -0.206837  -0.563509  -0.613943  -1.304492   0.748756   2.011354   0.470332   6.337478   1.188549  -5.213499   0.178070 -11.283451   0.257548  -0.574688   0.179005   1.382760  -2.904231  -0.137936  -1.364297   9.423286   0.022242  -0.011614  -5.644559  -0.908970  -0.177207  -0.526121  -0.001507   0.001570  -3.225231   0.009020   0.569310  10.085371  -0.023813  -0.000455  -5.986873   0.721378   0.427242   0.116787  -0.000377   0.000156
 -2.376627   0.921646   3.966603  -1.089608  -0.271513   0.472696   3.129407   0.137262  -0.733257   1.212403  -0.318045   0.032763  -0.453647  -0.106824  -0.059668   1.075900  -1.692015  -0.904369   5.710532  -0.900719   8.625154   0.248548  15.050887  -0.250895  -0.708696  -0.257231  -1.097278   0.977876   2.564273   0.222785   8.194805   1.367591  -7.037050   0.250958 -15.092404   0.311308  -0.716502  -0.270151   1.260976  -3.741918  -0.167868  -2.040995  12.292250   0.030372  -0.017106  -7.274383  -1.175301  -0.248410  -0.671986  -0.002015   0.001838  -4.188507   0.004626   1.004730  13.149664  -0.033727   0.001391  -7.716177   0.927348   0.568496   0.149122  -0.000496   0.000168
 -2.376613   0.919260   3.964231  -1.387786  -0.373039   0.576663   3.921619   0.178643  -0.900254   1.618985  -0.363581   0.033299  -0.504474  -0.130691  -0.076621   1.309122  -1.977576  -0.693394   6.918147  -0.900097  10.746188   0.313038  18.863041  -0.285303  -0.853345   0.126934  -0.706893   1.195605   3.059636  -0.121205   9.933240   1.459559  -8.824797   0.320409 -18.907086   0.353211  -0.858187  -0.738664   0.951719  -4.532850  -0.183526  -2.787081  14.963627   0.037209  -0.022343  -8.796811  -1.423433  -0.323074  -0.810402  -0.002474   0.002022  -5.112237  -0.010918   1.526612  15.998995  -0.042392   0.004268  -9.331759   1.117007   0.707030   0.173403  -0.000559   0.000167
 -2.376594   0.916167   3.961962  -1.664104  -0.473964   0.673461   4.683998   0.218208  -1.058239   2.015714  -0.402442   0.032990  -0.548807  -0.152924  -0.092504   1.529373  -2.226585  -0.415042   8.045434  -0.843371  12.783964   0.371081  22.679265  -0.312192  -0.998715   0.514820  -0.190559   1.403061   3.507871  -0.524674  11.559176   1.479830 -10.553713   0.384199 -22.725681   0.385982  -1.001111  -1.206820   0.510206  -5.276857  -0.183618  -3.583882  17.451969   0.042516  -0.027038 -10.218951  -1.654148  -0.399943  -0.941198  -0.002860   0.002133  -5.994707  -0.039603   2.115011  18.648954  -0.049346   0.007749 -10.841105   1.291361   0.842044   0.191161  -0.000574   0.000158
 -2.376568   0.911984   3.959695  -1.731322  -0.683424   0.703498   5.272947   0.306581  -1.161231   2.263339  -0.320076   0.079121  -0.659915  -0.155794  -0.142660   1.745613  -2.638672  -0.373018   9.521251  -0.552151  14.463756   0.412062  26.516366  -0.345994  -1.270108   1.021832   0.845656   1.643472   3.938224  -0.617433  13.294563   1.301227 -12.205499   0.431785 -26.557071   0.417498  -1.230951  -1.832645  -0.388888  -6.353934  -0.303292  -4.304249  20.069030   0.045092  -0.037464 -11.370869  -1.970253  -0.511824  -0.991837  -0.002639   0.002055  -6.964086  -0.022991   2.782222  21.016763  -0.053316   0.009944 -12.337166   1.587297   0.844115   0.288150  -0.001039   0.000336
 -2.376884   0.907738   3.957301  -1.806368  -0.772390   0.697807   5.883410   0.340167  -1.270114   2.492346  -0.272024   0.146093  -0.780408  -0.156515  -0.182407   1.945336  -3.027330  -0.386735  10.889352  -0.250252  15.971071   0.443628  30.352899  -0.373062  -1.529350   1.519816   1.810801   1.859711   4.308777  -0.628940  14.900918   1.082598 -13.674384   0.470044 -30.391370   0.442594  -1.454805  -2.462313  -1.215205  -7.509989  -0.319563  -4.371281  22.345294   0.034632  -0.035839 -13.075283  -1.899973  -0.254512  -0.929330  -0.002233   0.001566  -7.869977  -0.035473   3.494689  23.188154  -0.054834   0.014035 -13.732002   1.863262   0.852215   0.397150  -0.001494   0.000600
 -2.376867   0.904094   3.955145  -1.973370  -0.630265   0.650493   6.516928   0.291062  -1.269160   2.754035  -0.294747   0.224961  -0.885290  -0.158710  -0.222713   2.131650  -3.411510  -0.434136  12.159483   0.039376  17.335772   0.470869  34.176209  -0.395031  -1.780059   1.933618   2.651743   2.053419   4.614364  -0.664329  16.387693   0.812972 -15.037446   0.503975 -34.234987   0.462411  -1.674627  -3.089433  -1.973923  -8.707214  -0.315919  -4.360295  24.908124   0.026718  -0.029192 -14.264069  -1.937799  -0.228025  -0.960577  -0.001783   0.001252  -8.637466  -0.072927   4.170625  25.199024  -0.052582   0.020519 -15.032989   2.120039   0.865028   0.509993  -0.001804   0.001023
 -2.376543   0.900440   3.953332  -2.145096  -0.376546   0.692563   7.078793   0.218315  -1.309914   3.000285  -0.349387   0.286442  -0.976285  -0.160414  -0.255823   2.311964  -3.799916  -0.525220  13.345886   0.313897  18.583817   0.492749  37.994326  -0.411896  -2.024271   2.290643   3.453630   2.232774   4.893811  -0.654428  17.769176   0.528458 -16.279529   0.531652 -38.081861   0.476248  -1.893450  -3.706732  -2.711919  -9.765333  -0.349627  -4.466277  27.282879   0.021551  -0.022360 -15.407699  -2.043411  -0.244782  -0.976060  -0.001433   0.001001  -9.341789  -0.096571   4.698826  27.080470  -0.048351   0.026730 -16.249772   2.358252   0.880879   0.600529  -0.001882   0.001331
 -2.375994   0.896731   3.951763  -2.306905  -0.088797   0.764276   7.582508   0.153596  -1.346667   3.215984  -0.403876   0.339612  -1.063550  -0.161192  -0.286605   2.481803  -4.178264  -0.645013  14.450584   0.576700  19.722065   0.511022  41.806623  -0.425710  -2.260739   2.594884   4.197726   2.399553   5.162684  -0.619148  19.053870   0.246064 -17.415507   0.554758 -41.926351   0.486238  -2.110590  -4.284463  -3.407771 -10.734504  -0.393379  -4.621171  29.500438   0.018107  -0.016543 -16.496759  -2.169388  -0.272543  -0.990530  -0.001156   0.000800  -9.994649  -0.112983   5.162158  28.841200  -0.043483   0.031416 -17.386535   2.579431   0.899879   0.678252  -0.001857   0.001519
 -2.375266   0.892966   3.950375  -2.459882   0.210866   0.844776   8.039358   0.101970  -1.372022   3.405966  -0.448076   0.392252  -1.147962  -0.161448  -0.314424   2.640139  -4.538910  -0.781134  15.477982   0.831648  20.763528   0.527645  45.614695  -0.438657  -2.488760   2.856490   4.885431   2.556062   5.425331  -0.568025  20.250141  -0.028434 -18.458743   0.575108 -45.766708   0.494605  -2.324743  -4.811747  -4.063531 -11.632461  -0.440655  -4.800069  31.583419   0.015793  -0.011874 -17.533783  -2.301305  -0.304492  -1.003877  -0.000936   0.000640 -10.597830  -0.129109   5.588803  30.487124  -0.038543   0.034484 -18.448065   2.784823   0.921767   0.747839  -0.001782   0.001619
 -2.374448   0.889704   3.949113  -2.520322   0.362666   0.821199   8.376496   0.073298  -1.368398   3.567890  -0.417693   0.498509  -1.125623  -0.144007  -0.447527   2.770392  -4.879424  -1.018456  16.569980   1.127384  21.515463   0.539518  49.442281  -0.457268  -2.797232   3.159659   5.835354   2.769568   5.818739  -0.356681  21.531740  -0.365518 -19.346415   0.596359 -49.627650   0.514698  -2.610133  -5.352462  -4.920948 -12.419267  -0.556649  -4.888728  33.187130   0.012927  -0.010857 -18.316401  -2.249195  -0.383919  -0.866397  -0.000579   0.000515 -11.095593  -0.211079   6.020935  31.804481  -0.033639   0.032290 -19.160205   3.072533   0.960872   0.878857  -0.001919   0.001890
 -2.373529   0.886757   3.947810  -2.521402   0.443369   0.777653   8.673294   0.066237  -1.387671   3.704466  -0.357156   0.597272  -1.103092  -0.128746  -0.577624   2.881856  -5.203685  -1.340659  17.580291   1.397342  22.144926   0.549235  53.269379  -0.476907  -3.094705   3.461245   6.703987   2.973649   6.233416  -0.042014  22.731860  -0.644484 -20.105270   0.616822 -53.477281   0.537080  -2.884914  -5.834596  -5.730085 -13.167684  -0.647670  -4.958308  34.550828   0.010503  -0.010211 -18.961714  -2.160805  -0.476946  -0.737890  -0.000285   0.000414 -11.557946  -0.295991   6.379534  33.007109  -0.028933   0.028834 -19.823348   3.339755   1.001315   1.020362  -0.001963   0.002014
 -2.372516   0.884040   3.946462  -2.485559   0.498206   0.722380   8.948025   0.070165  -1.425177   3.827179  -0.284700   0.682397  -1.082369  -0.115233  -0.700726   2.975059  -5.512169  -1.715979  18.513867   1.643346  22.679754   0.559015  57.033972  -0.498221  -3.381788   3.765527   7.452343   3.159973   6.646931   0.337579  23.848917  -0.879840 -20.758329   0.640837 -57.315574   0.564188  -3.146635  -6.240305  -6.428148 -13.882944  -0.725401  -5.018450  35.749223   0.008562  -0.009544 -19.513720  -2.066385  -0.576756  -0.620129  -0.000055   0.000332 -11.986195  -0.374882   6.666072  34.129503  -0.024460   0.025173 -20.443207   3.587273   1.041862   1.148259  -0.001868   0.001997
 -2.371415   0.881502   3.945083  -2.422474   0.549769   0.652667   9.204899   0.082921  -1.474843   3.939294  -0.204618   0.755806  -1.061999  -0.103258  -0.816158   3.049385  -5.796990  -2.120015  19.373779   1.877232  23.140960   0.565860  60.559200  -0.517122  -3.666496   4.135821   8.105819   3.327361   7.046583   0.754307  24.887007  -1.084764 -21.326445   0.672955 -61.146167   0.599270  -3.395032  -6.584444  -7.027153 -14.567559  -0.800640  -5.067958  36.818480   0.007048  -0.008795 -19.994722  -1.977815  -0.678469  -0.512247   0.000121   0.000266 -12.379558  -0.445501   6.892250  35.180528  -0.020260   0.021695 -21.022429   3.816795   1.081996   1.263661  -0.001692   0.001912
